# xmcd
#
# Track frame offsets:
# 150
# 12865
# 37922
# 53565
# 75957
# 97180
# 113447
# 131697
# 149315
#
# Disc length: 2208 seconds
#
#
# Revision: 0
# Processed by: cddbd v1.5PL3 Copyright (c) Steve Scherf et al.
# Submitted via: FreeRIP 2.70 
#
DISCID=64089e09
DTITLE=Various Artist - Chicago Blues Sessions Vol. 13 (Blues Party)
DYEAR=1991
DGENRE=Blues
TTITLE0=John Littlejohn - 29 Ways
TTITLE1=Taildragger -My Head Is Bald
TTITLE2=John Littlejohn - Bloody Tears
TTITLE3=John Littlejohn - Dream
TTITLE4=Willie Kent - One More Mile
TTITLE5=Willie Kent - I'm Your Fool
TTITLE6=John Littlejohn - It's Too Much
TTITLE7=John Littlejohn - Came Home This Morning
TTITLE8=John Littlejohn - Keep On Running
EXTD=
EXTT0=
EXTT1=
EXTT2=
EXTT3=
EXTT4=
EXTT5=
EXTT6=
EXTT7=
EXTT8=
PLAYORDER=
